<?xml version="1.0" encoding="UTF-8" standalone="no"?>
<svg
   xmlns:dc="http://purl.org/dc/elements/1.1/"
   xmlns:cc="http://creativecommons.org/ns#"
   xmlns:rdf="http://www.w3.org/1999/02/22-rdf-syntax-ns#"
   xmlns:svg="http://www.w3.org/2000/svg"
   xmlns="http://www.w3.org/2000/svg"
   style="fill:none"
   id="svg11"
   version="1.1"
   viewBox="0 0 40 26.666668"
   height="26.666668"
   width="40">
  <metadata
     id="metadata15">
    <rdf:RDF>
      <cc:Work
         rdf:about="">
        <dc:format>image/svg+xml</dc:format>
        <dc:type
           rdf:resource="http://purl.org/dc/dcmitype/StillImage" />
        <dc:title></dc:title>
      </cc:Work>
    </rdf:RDF>
  </metadata>
  <g
     style="fill:#000000"
     id="g4"
     clip-path="url(#clip0_1_479)"
     transform="scale(1.7777778)">
    <path
       style="fill:#000000"
       id="path2"
       d="M 22.3627,7.16856 15.3315,0.1373 c -0.1832,-0.1830684 -0.4798,-0.1830684 -0.6629,0 -0.1831,0.183137 -0.1831,0.479794 0,0.662864 L 20.8997,7.03124 H 0.468765 C 0.209663,7.03124 -3.27835e-7,7.2409 -3.27836e-7,7.49999 -3.27833e-7,7.75915 0.209663,7.96881 0.468764,7.96881 H 20.8997 l -6.2311,6.23099 c -0.1831,0.1832 -0.1831,0.4798 0,0.6629 C 14.7602,14.9542 14.8801,15 15,15 c 0.12,0 0.2399,-0.0458 0.3315,-0.1373 l 7.0312,-7.03128 c 0.1831,-0.18307 0.1831,-0.47972 0,-0.66286 z" />
  </g>
  <defs
     id="defs9">
    <clipPath
       id="clip0_1_479">
      <rect
         style="fill:#ffffff"
         y="0"
         x="0"
         id="rect6"
         transform="rotate(-90,7.5,7.5)"
         height="22.5"
         width="15" />
    </clipPath>
  </defs>
</svg>
