<svg width="16" height="16" viewBox="0 0 16 16" fill="none" xmlns="http://www.w3.org/2000/svg">
<path d="M16 8.0281C16 3.59659 12.416 0 8 0C3.584 0 0 3.59659 0 8.0281C0 11.7933 2.584 14.9483 6.064 15.8234V10.4847H4.416V8.0281H6.064V6.96839C6.064 4.23884 7.296 2.9704 9.968 2.9704C10.472 2.9704 11.352 3.06673 11.704 3.1711V5.39488C11.512 5.37883 11.184 5.36277 10.776 5.36277C9.464 5.36277 8.96 5.86051 8.96 7.16106V8.0281H11.576L11.128 10.4847H8.96V16C12.92 15.5183 15.992 12.1385 15.992 8.0281" fill="#C2CFD6"/>
</svg>
