<svg width="16" height="16" viewBox="0 0 16 16" fill="none" xmlns="http://www.w3.org/2000/svg">
<path d="M16 1.83658C16 1.08325 15.6667 0.516582 14.9867 0.169915C14.7333 0.0432487 14.46 -0.00341797 14.18 -0.00341797C10.06 -0.00341797 5.94667 -0.00341797 1.83333 -0.00341797C0.913333 -0.00341797 0.2 0.596582 0.0333333 1.49658C0.02 1.56992 0.0133333 1.64325 0 1.72325V14.2699C0.0266667 14.3966 0.04 14.5299 0.0733333 14.6566C0.24 15.3432 0.833333 15.8766 1.52667 15.9699C1.6 15.9832 1.68 15.9899 1.75333 16.0032H14.26C14.4133 15.9766 14.5733 15.9566 14.7267 15.9166C15.4 15.7366 15.9333 15.1099 15.98 14.3832C15.9933 14.2232 16 14.0632 16 13.9032C16 9.88325 16 5.86325 16 1.84992V1.83658ZM4.86 13.6299C4.86 13.7899 4.86 13.7966 4.7 13.7966C3.99333 13.7966 3.28 13.7966 2.57333 13.7966C2.43333 13.7966 2.43333 13.7966 2.43333 13.6566C2.43333 11.1632 2.43333 8.67658 2.43333 6.18325C2.43333 6.08325 2.46 6.04325 2.56667 6.04325C3.28667 6.04325 4.00667 6.04325 4.72667 6.04325C4.86 6.04325 4.86 6.04325 4.86 6.18325C4.86 7.42325 4.86 8.66992 4.86 9.90991V13.6166V13.6299ZM3.64667 5.06992C2.84667 5.06992 2.20667 4.45658 2.20667 3.64325C2.20667 2.82992 2.82667 2.19658 3.63333 2.19658C4.5 2.19658 5.07333 2.91658 5.05333 3.62991C5.05333 4.42325 4.42667 5.06325 3.64667 5.06992ZM13.8067 13.6432C13.8067 13.7899 13.8067 13.7899 13.66 13.7899C12.9533 13.7899 12.24 13.7899 11.5333 13.7899C11.3933 13.7899 11.3933 13.7899 11.3933 13.6499C11.3933 12.2899 11.3933 10.9366 11.3933 9.57658C11.3933 9.24325 11.3333 8.90991 11.18 8.60991C10.98 8.22991 10.66 8.03658 10.2333 8.01658C9.94 8.00325 9.66 8.02991 9.39333 8.16992C9 8.38325 8.80667 8.74325 8.73333 9.16325C8.69333 9.36992 8.68667 9.58992 8.68667 9.80325C8.68667 11.0766 8.68667 12.3499 8.68667 13.6299C8.68667 13.7832 8.68667 13.7832 8.53333 13.7832C7.86 13.7832 7.18667 13.7832 6.51333 13.7832C6.36667 13.7832 6.36667 13.7832 6.36667 13.6432C6.36667 11.1566 6.36667 8.66991 6.36667 6.18325C6.36667 6.04325 6.36667 6.04325 6.51333 6.04325C7.19333 6.04325 7.87333 6.04325 8.55333 6.04325C8.68667 6.04325 8.69333 6.04325 8.69333 6.18325C8.69333 6.45658 8.69333 6.72325 8.69333 6.99658C8.94667 6.66991 9.23333 6.39658 9.58667 6.18992C10.1267 5.86992 10.7133 5.76992 11.34 5.82992C11.7933 5.86992 12.22 5.98991 12.6067 6.23658C13.2 6.61658 13.54 7.17658 13.7067 7.84325C13.7933 8.19658 13.8267 8.56325 13.8267 8.92325C13.8267 10.4966 13.8267 12.0699 13.8267 13.6432H13.8067Z" fill="#C2CFD6"/>
</svg>
