<svg width="72" height="56" viewBox="0 0 72 56" fill="none" xmlns="http://www.w3.org/2000/svg">
<g clip-path="url(#clip0_0_886)">
<path d="M72.0021 2.66943C72.0021 3.19987 71.7914 3.70857 71.4164 4.08365C71.0413 4.45872 70.5326 4.66943 70.0021 4.66943C69.4717 4.66943 68.963 4.45872 68.5879 4.08365C68.2128 3.70857 68.0021 3.19987 68.0021 2.66943C68.0021 2.139 68.2128 1.63029 68.5879 1.25522C68.963 0.880147 69.4717 0.669434 70.0021 0.669434C70.5326 0.669434 71.0413 0.880147 71.4164 1.25522C71.7914 1.63029 72.0021 2.139 72.0021 2.66943Z" fill="#0B4D89"/>
<path fill-rule="evenodd" clip-rule="evenodd" d="M18.3333 55.0704C8.208 55.0704 0 46.8624 0 36.7371V2.01172H6.66667V36.7371C6.66667 39.8312 7.89583 42.7987 10.0838 44.9866C12.2717 47.1746 15.2391 48.4037 18.3333 48.4037C24.8573 48.4037 30 43.3757 30 37.0117H36.6667V47.0117C36.6667 47.4537 36.8423 47.8777 37.1548 48.1902C37.4674 48.5028 37.8913 48.6784 38.3333 48.6784C38.7754 48.6784 39.1993 48.5028 39.5118 48.1902C39.8244 47.8777 40 47.4537 40 47.0117V35.1784C38.7891 35.4256 37.5384 35.4003 36.3385 35.1045C35.1385 34.8086 34.0194 34.2496 33.0622 33.4679C32.105 32.6861 31.3336 31.7013 30.804 30.5847C30.2744 29.468 29.9997 28.2476 30 27.0117V10.3451C30 8.13491 30.878 6.0153 32.4408 4.4525C34.0036 2.88969 36.1232 2.01172 38.3333 2.01172C40.5435 2.01172 42.6631 2.88969 44.2259 4.4525C45.7887 6.0153 46.6667 8.13491 46.6667 10.3451V47.0117C46.6667 47.4537 46.8423 47.8777 47.1548 48.1902C47.4674 48.5028 47.8913 48.6784 48.3333 48.6784C48.7754 48.6784 49.1993 48.5028 49.5118 48.1902C49.8244 47.8777 50 47.4537 50 47.0117V10.3451C50 8.13491 50.878 6.0153 52.4408 4.4525C54.0036 2.88969 56.1232 2.01172 58.3333 2.01172C60.5435 2.01172 62.6631 2.88969 64.2259 4.4525C65.7887 6.0153 66.6667 8.13491 66.6667 10.3451V47.0117C66.6667 48.5593 66.2357 50.0763 65.4221 51.3928C64.6085 52.7093 63.4443 53.7732 62.0601 54.4653C60.6759 55.1574 59.1263 55.4504 57.585 55.3114C56.0436 55.1724 54.5714 54.6069 53.3333 53.6784C51.8921 54.7627 50.1369 55.3478 48.3333 55.3451C46.5298 55.3478 44.7745 54.7627 43.3333 53.6784C42.3304 54.4305 41.1706 54.9467 39.9405 55.1885C38.7104 55.4303 37.4416 55.3915 36.2286 55.075C35.0155 54.7585 33.8895 54.1724 32.9344 53.3604C31.9792 52.5484 31.2196 51.5313 30.712 50.3851C27.4373 53.3144 23.0813 55.0704 18.3333 55.0704ZM58.3333 48.6784C57.4133 48.6784 56.6667 47.9317 56.6667 47.0117V10.3451C56.6667 9.90302 56.8423 9.4791 57.1548 9.16654C57.4674 8.85398 57.8913 8.67839 58.3333 8.67839C58.7754 8.67839 59.1993 8.85398 59.5118 9.16654C59.8244 9.4791 60 9.90302 60 10.3451V47.0117C60 47.9317 59.2533 48.6784 58.3333 48.6784ZM40 27.0117C40 27.4537 39.8244 27.8777 39.5118 28.1902C39.1993 28.5028 38.7754 28.6784 38.3333 28.6784C37.8913 28.6784 37.4674 28.5028 37.1548 28.1902C36.8423 27.8777 36.6667 27.4537 36.6667 27.0117V10.3451C36.6667 9.90302 36.8423 9.4791 37.1548 9.16654C37.4674 8.85398 37.8913 8.67839 38.3333 8.67839C38.7754 8.67839 39.1993 8.85398 39.5118 9.16654C39.8244 9.4791 40 9.90302 40 10.3451V27.0117Z" fill="#0B4D89"/>
<path fill-rule="evenodd" clip-rule="evenodd" d="M9.99725 37.0117C9.99725 39.2219 10.8752 41.3415 12.438 42.9043C14.0008 44.4671 16.1204 45.3451 18.3306 45.3451C20.5407 45.3451 22.6603 44.4671 24.2231 42.9043C25.7859 41.3415 26.6639 39.2219 26.6639 37.0117V10.3451C26.6639 8.13491 25.7859 6.0153 24.2231 4.4525C22.6603 2.88969 20.5407 2.01172 18.3306 2.01172C16.1204 2.01172 14.0008 2.88969 12.438 4.4525C10.8752 6.0153 9.99725 8.13491 9.99725 10.3451V37.0117ZM18.3306 38.6784C17.4106 38.6784 16.6639 37.9317 16.6639 37.0117V10.3451C16.6639 9.90302 16.8395 9.4791 17.1521 9.16654C17.4646 8.85398 17.8886 8.67838 18.3306 8.67838C18.7726 8.67838 19.1965 8.85398 19.5091 9.16654C19.8217 9.4791 19.9973 9.90302 19.9973 10.3451V37.0117C19.9973 37.9317 19.2506 38.6784 18.3306 38.6784Z" fill="#0B4D89"/>
</g>
<defs>
<clipPath id="clip0_0_886">
<rect width="72" height="54.6667" fill="white" transform="translate(0 0.666748)"/>
</clipPath>
</defs>
</svg>
