<svg width="317" height="412" viewBox="0 0 317 412" fill="none" xmlns="http://www.w3.org/2000/svg">
<g opacity="0.2">
<path d="M1.49414 316.257C82.2274 315.453 147.521 249.864 148.323 168.742C67.5898 169.546 2.29572 235.135 1.49414 316.257Z" fill="#DCEEDE"/>
<path d="M1.49414 1.5C2.29572 82.6218 67.5898 148.229 148.323 149.015C147.539 67.9105 82.2274 2.30371 1.49414 1.5Z" fill="#DCEEDE"/>
<path d="M167.941 168.742C168.743 249.864 234.037 315.471 314.77 316.257C313.969 235.135 248.675 169.528 167.941 168.742Z" fill="#DCEEDE"/>
<path d="M167.941 149.015C248.675 148.211 313.969 82.6218 314.77 1.5C234.037 2.30371 168.743 67.8931 167.941 149.015Z" fill="#DCEEDE"/>
<path d="M1.49414 335.969C2.29572 417.091 67.5898 482.697 148.323 483.484C147.521 402.362 82.2274 336.755 1.49414 335.969Z" fill="#DCEEDE"/>
<path d="M249.668 335.969H167.941C168.726 371.402 197.565 399.881 233.026 399.881H314.753C313.969 364.448 285.129 335.969 249.668 335.969Z" fill="#DCEEDE"/>
</g>
</svg>
