<svg width="1886" height="40" viewBox="0 0 1886 40" fill="none" xmlns="http://www.w3.org/2000/svg">
<g clip-path="url(#clip0_6_86)">
<path d="M262.738 4.40987V0H213.821C194.136 0 178.184 15.9311 178.184 35.5901V40H227.101C246.786 40 262.738 24.0689 262.738 4.40987Z" fill="url(#paint0_radial_6_86)"/>
<path d="M308.844 0C286.726 0 268.792 17.9109 268.792 40C290.91 40 308.844 22.0891 308.844 0Z" fill="url(#paint1_radial_6_86)"/>
<path d="M36.0528 40C36.0528 17.9109 18.1182 0 -4 0C-4 22.0891 13.9346 40 36.0528 40Z" fill="url(#paint2_radial_6_86)"/>
<path d="M169.133 40C169.133 17.9109 151.199 0 129.081 0C129.081 22.0891 147.015 40 169.133 40Z" fill="url(#paint3_radial_6_86)"/>
<path d="M39.9844 40C62.1026 40 80.0372 22.0891 80.0372 0C57.919 0 39.9844 17.9109 39.9844 40Z" fill="url(#paint4_radial_6_86)"/>
<path d="M84.4863 17.7785V40C94.3189 40 102.288 32.0411 102.288 22.2215V0C92.4558 0 84.4863 7.95895 84.4863 17.7785Z" fill="url(#paint5_radial_6_86)"/>
<path d="M124.539 40V17.7785C124.539 7.95895 116.569 0 106.737 0V22.2215C106.737 32.0411 114.706 40 124.539 40Z" fill="url(#paint6_radial_6_86)"/>
<path d="M1272.07 35.5901V40H1320.99C1340.67 40 1356.62 24.0689 1356.62 4.40987V0H1307.71C1288.02 0 1272.07 15.9311 1272.07 35.5901Z" fill="url(#paint7_radial_6_86)"/>
<path d="M317.782 35.5901V40H366.699C386.384 40 402.336 24.0689 402.336 4.40987V0H353.419C333.734 0 317.782 15.9311 317.782 35.5901Z" fill="url(#paint8_radial_6_86)"/>
<path d="M448.442 40C448.442 17.9109 430.508 0 408.39 0C408.39 22.0891 426.324 40 448.442 40Z" fill="url(#paint9_radial_6_86)"/>
<path d="M673.921 4.40987V0H625.004C605.319 0 589.366 15.9311 589.366 35.5901V40H638.284C657.969 40 673.921 24.0689 673.921 4.40987Z" fill="url(#paint10_radial_6_86)"/>
<path d="M718.423 0C696.304 0 678.37 17.9109 678.37 40C700.488 40 718.423 22.0891 718.423 0Z" fill="url(#paint11_radial_6_86)"/>
<path d="M581.523 40C581.523 17.9109 563.588 0 541.47 0C541.47 22.0891 559.405 40 581.523 40Z" fill="url(#paint12_radial_6_86)"/>
<path d="M452.374 40C474.492 40 492.427 22.0891 492.427 0C470.309 0 452.374 17.9109 452.374 40Z" fill="url(#paint13_radial_6_86)"/>
<path d="M496.882 17.7785V40C506.715 40 514.684 32.0411 514.684 22.2215V0C504.852 0 496.882 7.95895 496.882 17.7785Z" fill="url(#paint14_radial_6_86)"/>
<path d="M536.935 40V17.7785C536.935 7.95895 528.966 0 519.133 0V22.2215C519.133 32.0411 527.103 40 536.935 40Z" fill="url(#paint15_radial_6_86)"/>
<path d="M1040.83 0C1018.72 0 1000.78 17.9109 1000.78 40C1022.91 40 1040.83 22.0891 1040.83 0Z" fill="url(#paint16_radial_6_86)"/>
<path d="M768.905 40C768.905 17.9109 750.97 0 728.852 0C728.852 22.0891 746.787 40 768.905 40Z" fill="url(#paint17_radial_6_86)"/>
<path d="M994.377 4.40987V0H945.459C925.774 0 909.822 15.9311 909.822 35.5901V40H958.74C978.425 40 994.377 24.0689 994.377 4.40987Z" fill="url(#paint18_radial_6_86)"/>
<path d="M901.979 40C901.979 17.9109 884.044 0 861.926 0C861.926 22.0891 879.86 40 901.979 40Z" fill="url(#paint19_radial_6_86)"/>
<path d="M772.836 40C794.955 40 812.889 22.0891 812.889 0C790.771 0 772.836 17.9109 772.836 40Z" fill="url(#paint20_radial_6_86)"/>
<path d="M817.338 17.7785V40C827.17 40 835.14 32.0411 835.14 22.2215V0C825.307 0 817.338 7.95895 817.338 17.7785Z" fill="url(#paint21_radial_6_86)"/>
<path d="M857.391 40V17.7785C857.391 7.95895 849.421 0 839.589 0V22.2215C839.589 32.0411 847.558 40 857.391 40Z" fill="url(#paint22_radial_6_86)"/>
<path d="M1087.14 40C1087.14 17.9109 1069.2 0 1047.09 0C1047.09 22.0891 1065.02 40 1087.14 40Z" fill="url(#paint23_radial_6_86)"/>
<path d="M1220.21 40C1220.21 17.9109 1202.28 0 1180.16 0C1180.16 22.0891 1198.1 40 1220.21 40Z" fill="url(#paint24_radial_6_86)"/>
<path d="M1091.07 40C1113.19 40 1131.12 22.0891 1131.12 0C1109.01 0 1091.07 17.9109 1091.07 40Z" fill="url(#paint25_radial_6_86)"/>
<path d="M1226.11 40C1248.23 40 1266.17 22.0891 1266.17 0C1244.05 0 1226.11 17.9109 1226.11 40Z" fill="url(#paint26_radial_6_86)"/>
<path d="M1135.57 17.7785V40C1145.41 40 1153.37 32.0411 1153.37 22.2215V0C1143.54 0 1135.57 7.95895 1135.57 17.7785Z" fill="url(#paint27_radial_6_86)"/>
<path d="M1175.63 40V17.7785C1175.63 7.95895 1167.66 0 1157.82 0V22.2215C1157.82 32.0411 1165.79 40 1175.63 40Z" fill="url(#paint28_radial_6_86)"/>
<path d="M1633.47 4.40987V0H1584.55C1564.87 0 1548.92 15.9311 1548.92 35.5901V40H1597.83C1617.52 40 1633.47 24.0689 1633.47 4.40987Z" fill="url(#paint29_radial_6_86)"/>
<path d="M1679.58 0C1657.47 0 1639.53 17.9109 1639.53 40C1661.65 40 1679.58 22.0891 1679.58 0Z" fill="url(#paint30_radial_6_86)"/>
<path d="M1406.79 40C1406.79 17.9109 1388.86 0 1366.74 0C1366.74 22.0891 1384.67 40 1406.79 40Z" fill="url(#paint31_radial_6_86)"/>
<path d="M1539.87 40C1539.87 17.9109 1521.94 0 1499.82 0C1499.82 22.0891 1517.76 40 1539.87 40Z" fill="url(#paint32_radial_6_86)"/>
<path d="M1410.72 40C1432.84 40 1450.78 22.0891 1450.78 0C1428.66 0 1410.72 17.9109 1410.72 40Z" fill="url(#paint33_radial_6_86)"/>
<path d="M1455.23 17.7785V40C1465.06 40 1473.03 32.0411 1473.03 22.2215V0C1463.2 0 1455.23 7.95895 1455.23 17.7785Z" fill="url(#paint34_radial_6_86)"/>
<path d="M1495.28 40V17.7785C1495.28 7.95895 1487.31 0 1477.48 0V22.2215C1477.48 32.0411 1485.45 40 1495.28 40Z" fill="url(#paint35_radial_6_86)"/>
<path d="M1688.52 35.5901V40H1737.44C1757.12 40 1773.08 24.0689 1773.08 4.40987V0H1724.16C1704.47 0 1688.52 15.9311 1688.52 35.5901Z" fill="url(#paint36_radial_6_86)"/>
<path d="M1819.18 40C1819.18 17.9109 1801.25 0 1779.13 0C1779.13 22.0891 1797.06 40 1819.18 40Z" fill="url(#paint37_radial_6_86)"/>
<path d="M1823.11 40C1845.23 40 1863.17 22.0891 1863.17 0C1841.05 0 1823.11 17.9109 1823.11 40Z" fill="url(#paint38_radial_6_86)"/>
<path d="M1867.62 17.7785V40C1877.45 40 1885.42 32.0411 1885.42 22.2215V0C1875.59 0 1867.62 7.95895 1867.62 17.7785Z" fill="url(#paint39_radial_6_86)"/>
</g>
<defs>
<radialGradient id="paint0_radial_6_86" cx="0" cy="0" r="1" gradientUnits="userSpaceOnUse" gradientTransform="translate(220.458 20.0033) scale(48.4466 48.3827)">
<stop stop-color="#0B4D8A"/>
<stop offset="1" stop-color="#0B4D8A" stop-opacity="0.8"/>
</radialGradient>
<radialGradient id="paint1_radial_6_86" cx="0" cy="0" r="1" gradientUnits="userSpaceOnUse" gradientTransform="translate(288.815 20.0033) scale(29.3319 29.2932)">
<stop stop-color="#2B7C62"/>
<stop offset="1" stop-color="#2B7C62" stop-opacity="0.8"/>
</radialGradient>
<radialGradient id="paint2_radial_6_86" cx="0" cy="0" r="1" gradientUnits="userSpaceOnUse" gradientTransform="translate(16.0297 20.0033) scale(29.3318 29.2932)">
<stop stop-color="#0B4D8A"/>
<stop offset="1" stop-color="#0B4D8A" stop-opacity="0.8"/>
</radialGradient>
<radialGradient id="paint3_radial_6_86" cx="0" cy="0" r="1" gradientUnits="userSpaceOnUse" gradientTransform="translate(149.11 20.0033) scale(29.3319 29.2932)">
<stop stop-color="#2B7C62"/>
<stop offset="1" stop-color="#2B7C62" stop-opacity="0.8"/>
</radialGradient>
<radialGradient id="paint4_radial_6_86" cx="0" cy="0" r="1" gradientUnits="userSpaceOnUse" gradientTransform="translate(60.0141 20.0033) scale(29.3319 29.2932)">
<stop stop-color="#2B7C62"/>
<stop offset="1" stop-color="#2B7C62" stop-opacity="0.8"/>
</radialGradient>
<radialGradient id="paint5_radial_6_86" cx="0" cy="0" r="1" gradientUnits="userSpaceOnUse" gradientTransform="translate(93.3906 20.0033) scale(22.695 22.6651)">
<stop stop-color="#0B4D8A"/>
<stop offset="1" stop-color="#0B4D8A" stop-opacity="0.8"/>
</radialGradient>
<radialGradient id="paint6_radial_6_86" cx="0" cy="0" r="1" gradientUnits="userSpaceOnUse" gradientTransform="translate(115.641 20.0033) scale(22.695 22.6651)">
<stop stop-color="#0B4D8A"/>
<stop offset="1" stop-color="#0B4D8A" stop-opacity="0.8"/>
</radialGradient>
<radialGradient id="paint7_radial_6_86" cx="0" cy="0" r="1" gradientUnits="userSpaceOnUse" gradientTransform="translate(1314.35 20.0033) scale(48.4466 48.3827)">
<stop stop-color="#2B7C62"/>
<stop offset="1" stop-color="#2B7C62" stop-opacity="0.8"/>
</radialGradient>
<radialGradient id="paint8_radial_6_86" cx="0" cy="0" r="1" gradientUnits="userSpaceOnUse" gradientTransform="translate(360.062 20.0033) scale(48.4466 48.3827)">
<stop stop-color="#2B7C62"/>
<stop offset="1" stop-color="#2B7C62" stop-opacity="0.8"/>
</radialGradient>
<radialGradient id="paint9_radial_6_86" cx="0" cy="0" r="1" gradientUnits="userSpaceOnUse" gradientTransform="translate(428.419 20.0033) scale(29.3319 29.2932)">
<stop stop-color="#0B4D8A"/>
<stop offset="1" stop-color="#0B4D8A" stop-opacity="0.8"/>
</radialGradient>
<radialGradient id="paint10_radial_6_86" cx="0" cy="0" r="1" gradientUnits="userSpaceOnUse" gradientTransform="translate(631.64 20.0033) scale(48.4466 48.3827)">
<stop stop-color="#0B4D8A"/>
<stop offset="1" stop-color="#0B4D8A" stop-opacity="0.8"/>
</radialGradient>
<radialGradient id="paint11_radial_6_86" cx="0" cy="0" r="1" gradientUnits="userSpaceOnUse" gradientTransform="translate(698.4 20.0033) scale(29.3319 29.2932)">
<stop stop-color="#2B7C62"/>
<stop offset="1" stop-color="#2B7C62" stop-opacity="0.8"/>
</radialGradient>
<radialGradient id="paint12_radial_6_86" cx="0" cy="0" r="1" gradientUnits="userSpaceOnUse" gradientTransform="translate(561.5 20.0033) scale(29.3318 29.2932)">
<stop stop-color="#2B7C62"/>
<stop offset="1" stop-color="#2B7C62" stop-opacity="0.8"/>
</radialGradient>
<radialGradient id="paint13_radial_6_86" cx="0" cy="0" r="1" gradientUnits="userSpaceOnUse" gradientTransform="translate(472.404 20.0033) scale(29.3318 29.2932)">
<stop stop-color="#2B7C62"/>
<stop offset="1" stop-color="#2B7C62" stop-opacity="0.8"/>
</radialGradient>
<radialGradient id="paint14_radial_6_86" cx="0" cy="0" r="1" gradientUnits="userSpaceOnUse" gradientTransform="translate(505.78 20.0033) scale(22.695 22.6651)">
<stop stop-color="#0B4D8A"/>
<stop offset="1" stop-color="#0B4D8A" stop-opacity="0.8"/>
</radialGradient>
<radialGradient id="paint15_radial_6_86" cx="0" cy="0" r="1" gradientUnits="userSpaceOnUse" gradientTransform="translate(528.038 20.0033) scale(22.695 22.6651)">
<stop stop-color="#0B4D8A"/>
<stop offset="1" stop-color="#0B4D8A" stop-opacity="0.8"/>
</radialGradient>
<radialGradient id="paint16_radial_6_86" cx="0" cy="0" r="1" gradientUnits="userSpaceOnUse" gradientTransform="translate(1020.81 -289.29) scale(29.3319 29.2932)">
<stop stop-color="#2B7C62"/>
<stop offset="1" stop-color="#2B7C62" stop-opacity="0.8"/>
</radialGradient>
<radialGradient id="paint17_radial_6_86" cx="0" cy="0" r="1" gradientUnits="userSpaceOnUse" gradientTransform="translate(748.875 20.0033) scale(29.3319 29.2932)">
<stop stop-color="#0B4D8A"/>
<stop offset="1" stop-color="#0B4D8A" stop-opacity="0.8"/>
</radialGradient>
<radialGradient id="paint18_radial_6_86" cx="0" cy="0" r="1" gradientUnits="userSpaceOnUse" gradientTransform="translate(952.103 20.0033) scale(48.4466 48.3827)">
<stop stop-color="#0B4D8A"/>
<stop offset="1" stop-color="#0B4D8A" stop-opacity="0.8"/>
</radialGradient>
<radialGradient id="paint19_radial_6_86" cx="0" cy="0" r="1" gradientUnits="userSpaceOnUse" gradientTransform="translate(881.955 20.0033) scale(29.3318 29.2932)">
<stop stop-color="#2B7C62"/>
<stop offset="1" stop-color="#2B7C62" stop-opacity="0.8"/>
</radialGradient>
<radialGradient id="paint20_radial_6_86" cx="0" cy="0" r="1" gradientUnits="userSpaceOnUse" gradientTransform="translate(792.859 20.0033) scale(29.3318 29.2932)">
<stop stop-color="#2B7C62"/>
<stop offset="1" stop-color="#2B7C62" stop-opacity="0.8"/>
</radialGradient>
<radialGradient id="paint21_radial_6_86" cx="0" cy="0" r="1" gradientUnits="userSpaceOnUse" gradientTransform="translate(826.242 20.0033) scale(22.695 22.6651)">
<stop stop-color="#0B4D8A"/>
<stop offset="1" stop-color="#0B4D8A" stop-opacity="0.8"/>
</radialGradient>
<radialGradient id="paint22_radial_6_86" cx="0" cy="0" r="1" gradientUnits="userSpaceOnUse" gradientTransform="translate(848.493 20.0033) scale(22.695 22.6651)">
<stop stop-color="#0B4D8A"/>
<stop offset="1" stop-color="#0B4D8A" stop-opacity="0.8"/>
</radialGradient>
<radialGradient id="paint23_radial_6_86" cx="0" cy="0" r="1" gradientUnits="userSpaceOnUse" gradientTransform="translate(1067.11 20.0033) scale(29.3318 29.2932)">
<stop stop-color="#0B4D8A"/>
<stop offset="1" stop-color="#0B4D8A" stop-opacity="0.8"/>
</radialGradient>
<radialGradient id="paint24_radial_6_86" cx="0" cy="0" r="1" gradientUnits="userSpaceOnUse" gradientTransform="translate(1200.19 20.0033) scale(29.3319 29.2932)">
<stop stop-color="#2B7C62"/>
<stop offset="1" stop-color="#2B7C62" stop-opacity="0.8"/>
</radialGradient>
<radialGradient id="paint25_radial_6_86" cx="0" cy="0" r="1" gradientUnits="userSpaceOnUse" gradientTransform="translate(1111.09 20.0033) scale(29.3319 29.2932)">
<stop stop-color="#2B7C62"/>
<stop offset="1" stop-color="#2B7C62" stop-opacity="0.8"/>
</radialGradient>
<radialGradient id="paint26_radial_6_86" cx="0" cy="0" r="1" gradientUnits="userSpaceOnUse" gradientTransform="translate(1246.14 20.0033) scale(29.3319 29.2932)">
<stop stop-color="#0B4D8A"/>
<stop offset="1" stop-color="#0B4D8A" stop-opacity="0.8"/>
</radialGradient>
<radialGradient id="paint27_radial_6_86" cx="0" cy="0" r="1" gradientUnits="userSpaceOnUse" gradientTransform="translate(1144.48 20.0033) scale(22.695 22.6651)">
<stop stop-color="#0B4D8A"/>
<stop offset="1" stop-color="#0B4D8A" stop-opacity="0.8"/>
</radialGradient>
<radialGradient id="paint28_radial_6_86" cx="0" cy="0" r="1" gradientUnits="userSpaceOnUse" gradientTransform="translate(1166.73 20.0033) scale(22.6951 22.6651)">
<stop stop-color="#0B4D8A"/>
<stop offset="1" stop-color="#0B4D8A" stop-opacity="0.8"/>
</radialGradient>
<radialGradient id="paint29_radial_6_86" cx="0" cy="0" r="1" gradientUnits="userSpaceOnUse" gradientTransform="translate(1591.2 -289.29) scale(48.4466 48.3827)">
<stop stop-color="#0B4D8A"/>
<stop offset="1" stop-color="#0B4D8A" stop-opacity="0.8"/>
</radialGradient>
<radialGradient id="paint30_radial_6_86" cx="0" cy="0" r="1" gradientUnits="userSpaceOnUse" gradientTransform="translate(1659.55 -289.29) scale(29.3318 29.2932)">
<stop stop-color="#2B7C62"/>
<stop offset="1" stop-color="#2B7C62" stop-opacity="0.8"/>
</radialGradient>
<radialGradient id="paint31_radial_6_86" cx="0" cy="0" r="1" gradientUnits="userSpaceOnUse" gradientTransform="translate(1386.77 20.0033) scale(29.3319 29.2932)">
<stop stop-color="#0B4D8A"/>
<stop offset="1" stop-color="#0B4D8A" stop-opacity="0.8"/>
</radialGradient>
<radialGradient id="paint32_radial_6_86" cx="0" cy="0" r="1" gradientUnits="userSpaceOnUse" gradientTransform="translate(1519.84 20.0033) scale(29.3319 29.2932)">
<stop stop-color="#2B7C62"/>
<stop offset="1" stop-color="#2B7C62" stop-opacity="0.8"/>
</radialGradient>
<radialGradient id="paint33_radial_6_86" cx="0" cy="0" r="1" gradientUnits="userSpaceOnUse" gradientTransform="translate(1430.75 20.0033) scale(29.3318 29.2932)">
<stop stop-color="#2B7C62"/>
<stop offset="1" stop-color="#2B7C62" stop-opacity="0.8"/>
</radialGradient>
<radialGradient id="paint34_radial_6_86" cx="0" cy="0" r="1" gradientUnits="userSpaceOnUse" gradientTransform="translate(1464.13 20.0033) scale(22.6951 22.6651)">
<stop stop-color="#0B4D8A"/>
<stop offset="1" stop-color="#0B4D8A" stop-opacity="0.8"/>
</radialGradient>
<radialGradient id="paint35_radial_6_86" cx="0" cy="0" r="1" gradientUnits="userSpaceOnUse" gradientTransform="translate(1486.38 20.0033) scale(22.6951 22.6651)">
<stop stop-color="#0B4D8A"/>
<stop offset="1" stop-color="#0B4D8A" stop-opacity="0.8"/>
</radialGradient>
<radialGradient id="paint36_radial_6_86" cx="0" cy="0" r="1" gradientUnits="userSpaceOnUse" gradientTransform="translate(1730.8 20.0033) scale(48.4466 48.3827)">
<stop stop-color="#2B7C62"/>
<stop offset="1" stop-color="#2B7C62" stop-opacity="0.8"/>
</radialGradient>
<radialGradient id="paint37_radial_6_86" cx="0" cy="0" r="1" gradientUnits="userSpaceOnUse" gradientTransform="translate(1799.16 20.0033) scale(29.3319 29.2932)">
<stop stop-color="#0B4D8A"/>
<stop offset="1" stop-color="#0B4D8A" stop-opacity="0.8"/>
</radialGradient>
<radialGradient id="paint38_radial_6_86" cx="0" cy="0" r="1" gradientUnits="userSpaceOnUse" gradientTransform="translate(1843.14 20.0033) scale(29.3318 29.2932)">
<stop stop-color="#2B7C62"/>
<stop offset="1" stop-color="#2B7C62" stop-opacity="0.8"/>
</radialGradient>
<radialGradient id="paint39_radial_6_86" cx="0" cy="0" r="1" gradientUnits="userSpaceOnUse" gradientTransform="translate(1876.52 20.0033) scale(22.6951 22.6651)">
<stop stop-color="#0B4D8A"/>
<stop offset="1" stop-color="#0B4D8A" stop-opacity="0.8"/>
</radialGradient>
<clipPath id="clip0_6_86">
<rect width="1889.42" height="40" fill="white" transform="translate(-4)"/>
</clipPath>
</defs>
</svg>
